HIERARCHY
ROOT Hips
{
	OFFSET 0.000000 1.471914 24.280096
	CHANNELS 6 Xposition Yposition Zposition Xrotation Yrotation Zrotation
	JOINT Spine
	{
		OFFSET 0.000000 0.900110 1.860670
		CHANNELS 6 Xposition Yposition Zposition Xrotation Yrotation Zrotation
		JOINT Spine1
		{
			OFFSET 0.000000 0.400320 2.270309
			CHANNELS 6 Xposition Yposition Zposition Xrotation Yrotation Zrotation
			JOINT Spine2
			{
				OFFSET 0.000000 0.200920 2.296560
				CHANNELS 6 Xposition Yposition Zposition Xrotation Yrotation Zrotation
				JOINT Spine3
				{
					OFFSET 0.000000 0.000000 2.305330
					CHANNELS 6 Xposition Yposition Zposition Xrotation Yrotation Zrotation
					JOINT Neck
					{
						OFFSET 0.000000 -0.864490 6.051487
						CHANNELS 6 Xposition Yposition Zposition Xrotation Yrotation Zrotation
						JOINT Head
						{
							OFFSET 0.000000 -0.550429 3.121674
							CHANNELS 6 Xposition Yposition Zposition Xrotation Yrotation Zrotation
							End Site
							{
								OFFSET 0.000000 0.000000 3.731750
							}
						}
					}
					JOINT RightShoulder
					{
						OFFSET -0.788280 -1.313800 4.256718
						CHANNELS 6 Xposition Yposition Zposition Xrotation Yrotation Zrotation
						JOINT RightArm
						{
							OFFSET -3.915130 0.000000 0.000000
							CHANNELS 6 Xposition Yposition Zposition Xrotation Yrotation Zrotation
							JOINT RightForeArm
							{
								OFFSET -6.914910 0.000000 0.000000
								CHANNELS 6 Xposition Yposition Zposition Xrotation Yrotation Zrotation
								JOINT RightHand
								{
									OFFSET -6.096219 0.000000 0.000000
									CHANNELS 6 Xposition Yposition Zposition Xrotation Yrotation Zrotation
									JOINT RightHandEnd
									{
										OFFSET -1.749950 0.000000 0.000000
										CHANNELS 6 Xposition Yposition Zposition Xrotation Yrotation Zrotation
										End Site
										{
											OFFSET -1.749950 0.000000 0.000000
										}
									}
									JOINT RightHandThumb1
									{
										OFFSET -0.699980 -1.166630 -0.466648
										CHANNELS 6 Xposition Yposition Zposition Xrotation Yrotation Zrotation
										End Site
										{
											OFFSET -1.690319 -0.452920 0.000000
										}
									}
								}
							}
						}
					}
					JOINT LeftShoulder
					{
						OFFSET 0.788280 -1.313800 4.256718
						CHANNELS 6 Xposition Yposition Zposition Xrotation Yrotation Zrotation
						JOINT LeftArm
						{
							OFFSET 3.915130 0.000000 0.000000
							CHANNELS 6 Xposition Yposition Zposition Xrotation Yrotation Zrotation
							JOINT LeftForeArm
							{
								OFFSET 6.914910 0.000000 0.000000
								CHANNELS 6 Xposition Yposition Zposition Xrotation Yrotation Zrotation
								JOINT LeftHand
								{
									OFFSET 6.096219 0.000000 0.000000
									CHANNELS 6 Xposition Yposition Zposition Xrotation Yrotation Zrotation
									JOINT LeftHandEnd
									{
										OFFSET 1.749950 0.000000 0.000000
										CHANNELS 6 Xposition Yposition Zposition Xrotation Yrotation Zrotation
										End Site
										{
											OFFSET 1.749950 0.000000 0.000000
										}
									}
									JOINT LeftHandThumb1
									{
										OFFSET 0.699980 -1.166630 -0.466648
										CHANNELS 6 Xposition Yposition Zposition Xrotation Yrotation Zrotation
										End Site
										{
											OFFSET 1.690319 -0.452920 0.000000
										}
									}
								}
							}
						}
					}
				}
			}
		}
	}
	JOINT RightUpLeg
	{
		OFFSET -2.338570 -0.252550 -0.551512
		CHANNELS 6 Xposition Yposition Zposition Xrotation Yrotation Zrotation
		JOINT RightLeg
		{
			OFFSET 0.000000 0.000000 -10.744959
			CHANNELS 6 Xposition Yposition Zposition Xrotation Yrotation Zrotation
			JOINT RightFoot
			{
				OFFSET 0.000000 -0.000001 -10.930849
				CHANNELS 6 Xposition Yposition Zposition Xrotation Yrotation Zrotation
				JOINT RightToeBase
				{
					OFFSET 0.000000 -4.087269 -1.487650
					CHANNELS 6 Xposition Yposition Zposition Xrotation Yrotation Zrotation
					End Site
					{
						OFFSET 0.000000 -1.891870 0.000000
					}
				}
			}
		}
	}
	JOINT LeftUpLeg
	{
		OFFSET 2.338570 -0.252550 -0.551512
		CHANNELS 6 Xposition Yposition Zposition Xrotation Yrotation Zrotation
		JOINT LeftLeg
		{
			OFFSET 0.000000 0.000000 -10.744959
			CHANNELS 6 Xposition Yposition Zposition Xrotation Yrotation Zrotation
			JOINT LeftFoot
			{
				OFFSET 0.000000 -0.000001 -10.930849
				CHANNELS 6 Xposition Yposition Zposition Xrotation Yrotation Zrotation
				JOINT LeftToeBase
				{
					OFFSET 0.000000 -4.087269 -1.487650
					CHANNELS 6 Xposition Yposition Zposition Xrotation Yrotation Zrotation
					End Site
					{
						OFFSET 0.000000 -1.891870 0.000000
					}
				}
			}
		}
	}
}
MOTION
Frames: 6
Frame Time: 0.041667
-0.000008 26.731016 39.966019 -0.251225 -0.360100 51.728561 -0.000010 0.900095 1.860708 15.112893 -5.442422 0.765699 0.000002 0.400293 2.270336 -0.000003 -0.000001 -0.000002 0.000022 0.200908 2.296526 0.000003 -0.000000 0.000008 0.000016 -0.000042 2.305334 -0.000010 -0.000015 21.846350 -0.000007 -0.864469 6.051491 0.915323 -4.646388 -173.302567 0.000019 -0.550451 3.121719 -0.000001 0.000003 -0.000000 -0.788279 -1.313754 4.256772 -121.900517 35.855092 -60.780733 -3.915094 -0.000007 -0.000031 -0.000002 -0.000000 -0.000000 -6.914888 -0.000004 -0.000006 0.000014 0.000046 -29.005761 -6.096185 -0.000006 -0.000007 -0.000019 0.000050 -0.000059 -1.749929 -0.000000 0.000005 -0.000002 0.000000 0.000001 -0.700008 -1.166621 -0.466662 0.000001 0.000001 0.000005 0.788266 -1.313793 4.256753 -115.039701 -49.910682 72.853468 3.915190 -0.000018 -0.000007 0.000001 0.000000 -0.000001 6.914900 -0.000025 -0.000018 0.000019 -0.000042 27.260479 6.096257 0.000051 -0.000027 0.000032 -0.000061 0.000008 1.749934 0.000008 0.000014 0.000008 -0.000001 -0.000001 0.699936 -1.166587 -0.466664 0.000015 -0.000003 -0.000028 -2.338581 -0.252532 -0.551506 23.298373 -3.292842 1.169150 0.000009 -0.000009 -10.744974 15.253380 -1.829894 -0.152382 -0.000022 0.000041 -10.930842 0.000002 -0.000001 -0.000004 -0.000001 -4.087266 -1.487639 0.000004 -0.000002 -0.000000 2.338570 -0.252540 -0.551444 -21.572497 -15.071320 -1.097701 -0.000008 -0.000011 -10.744935 37.021691 0.089491 -7.513226 -0.000001 0.000010 -10.930861 0.000017 0.000001 0.000002 -0.000022 -4.087223 -1.487653 -0.000004 -0.000000 -0.000002 
0.000009 26.731014 39.966022 -0.372891 -0.148004 51.520738 -0.000008 0.900097 1.860705 14.917946 -5.601628 0.826953 0.000003 0.400297 2.270338 -0.000001 -0.000002 0.000001 0.000021 0.200906 2.296516 0.000001 0.000000 0.000007 0.000016 -0.000042 2.305330 -0.000011 -0.000012 22.087314 -0.000009 -0.864465 6.051486 0.932682 -5.032509 -172.975429 0.000022 -0.550451 3.121712 -0.000001 0.000002 -0.000001 -0.788280 -1.313751 4.256766 -121.716225 35.945698 -60.859499 -3.915096 -0.000006 -0.000031 -0.000004 -0.000000 0.000000 -6.914886 -0.000004 -0.000006 0.000013 0.000048 -28.655912 -6.096176 -0.000005 -0.000006 -0.000024 0.000050 -0.000061 -1.749934 0.000000 0.000012 0.000001 -0.000002 -0.000001 -0.700012 -1.166623 -0.466659 0.000001 0.000001 0.000003 0.788269 -1.313788 4.256749 -114.605438 -48.449254 74.730070 3.915196 -0.000012 0.000000 0.000002 -0.000001 -0.000001 6.914908 -0.000020 -0.000018 0.000020 -0.000046 25.091473 6.096252 0.000054 -0.000015 0.000027 -0.000063 0.000010 1.749934 0.000009 0.000007 0.000007 -0.000002 -0.000003 0.699932 -1.166586 -0.466660 0.000021 -0.000001 -0.000028 -2.338581 -0.252531 -0.551508 23.299018 -3.273432 1.277761 0.000010 -0.000010 -10.744979 15.295642 -1.936724 -0.080707 -0.000025 0.000040 -10.930840 0.000005 -0.000003 -0.000007 0.000001 -4.087264 -1.487638 0.000002 -0.000004 -0.000003 2.338569 -0.252538 -0.551447 -21.424797 -15.360568 -1.193333 -0.000005 -0.000014 -10.744940 36.765843 -0.041000 -7.490066 -0.000003 0.000001 -10.930861 0.000020 0.000002 -0.000000 -0.000018 -4.087220 -1.487652 -0.000002 -0.000002 -0.000004 
0.000008 26.731010 39.966026 -0.380555 -0.048606 51.580270 -0.000007 0.900100 1.860701 15.040032 -5.645151 0.875095 0.000005 0.400288 2.270336 -0.000003 -0.000003 -0.000003 0.000019 0.200908 2.296524 0.000002 -0.000001 0.000001 0.000013 -0.000041 2.305323 -0.000011 -0.000012 22.086989 -0.000007 -0.864469 6.051494 1.093201 -4.692394 -173.456902 0.000011 -0.550450 3.121708 -0.000002 0.000004 -0.000001 -0.788278 -1.313757 4.256760 -122.309905 36.624437 -60.478887 -3.915095 -0.000006 -0.000034 -0.000002 0.000000 0.000000 -6.914884 -0.000005 0.000001 0.000014 0.000046 -29.030493 -6.096180 -0.000005 -0.000007 -0.000022 0.000051 -0.000057 -1.749931 0.000001 0.000010 0.000002 -0.000003 0.000002 -0.700006 -1.166619 -0.466664 0.000001 -0.000002 0.000005 0.788269 -1.313792 4.256752 -114.894464 -48.074348 74.584334 3.915187 -0.000014 -0.000004 0.000003 -0.000003 -0.000000 6.914908 -0.000019 -0.000021 0.000017 -0.000045 25.567036 6.096252 0.000051 -0.000012 0.000028 -0.000060 0.000013 1.749933 0.000012 0.000015 0.000008 -0.000003 -0.000001 0.699933 -1.166584 -0.466660 0.000017 -0.000003 -0.000025 -2.338579 -0.252528 -0.551515 23.257354 -3.325936 1.339122 0.000011 -0.000010 -10.744974 15.205502 -2.042770 -0.055057 -0.000020 0.000041 -10.930839 0.000003 -0.000004 -0.000007 -0.000000 -4.087265 -1.487640 0.000007 -0.000002 -0.000005 2.338570 -0.252535 -0.551449 -21.505930 -15.435934 -1.257567 -0.000003 -0.000012 -10.744935 36.728034 0.024112 -7.437522 0.000001 0.000010 -10.930862 0.000027 0.000001 0.000004 -0.000018 -4.087223 -1.487652 0.000004 -0.000002 -0.000002 
0.000008 26.731007 39.966026 -0.588595 0.041222 51.245612 -0.000006 0.900097 1.860701 14.978198 -5.739489 0.925140 0.000002 0.400287 2.270334 -0.000002 -0.000004 -0.000001 0.000021 0.200910 2.296524 0.000003 0.000000 0.000001 0.000015 -0.000042 2.305334 -0.000011 -0.000009 22.318656 -0.000011 -0.864466 6.051488 1.531371 -4.653628 -173.294918 0.000018 -0.550452 3.121719 -0.000001 0.000001 -0.000000 -0.788278 -1.313752 4.256760 -122.248829 36.679212 -60.486188 -3.915096 -0.000006 -0.000027 -0.000007 -0.000001 0.000002 -6.914881 -0.000001 -0.000002 0.000012 0.000047 -28.536592 -6.096176 -0.000009 -0.000008 -0.000027 0.000049 -0.000061 -1.749936 -0.000002 0.000007 0.000004 -0.000001 -0.000003 -0.700009 -1.166623 -0.466663 0.000004 -0.000000 0.000004 0.788266 -1.313792 4.256747 -114.314527 -45.352033 76.663874 3.915194 -0.000009 -0.000004 0.000003 -0.000002 -0.000001 6.914898 -0.000020 -0.000021 0.000017 -0.000048 23.013018 6.096251 0.000054 -0.000015 0.000032 -0.000062 0.000015 1.749935 0.000008 0.000011 0.000002 -0.000004 0.000001 0.699930 -1.166587 -0.466656 0.000022 -0.000004 -0.000024 -2.338579 -0.252532 -0.551506 23.357106 -3.117025 1.426682 0.000013 -0.000009 -10.744973 15.164808 -2.418481 0.049115 -0.000022 0.000043 -10.930841 0.000003 0.000001 -0.000004 -0.000002 -4.087265 -1.487644 0.000002 -0.000002 -0.000003 2.338572 -0.252537 -0.551451 -21.345615 -15.658523 -1.325849 -0.000001 -0.000015 -10.744932 36.722819 0.136936 -7.449723 0.000001 0.000011 -10.930859 0.000024 -0.000001 0.000004 -0.000020 -4.087226 -1.487654 0.000003 -0.000004 -0.000006 
0.000007 26.731007 39.966038 -0.486738 0.355984 50.987683 -0.000006 0.900097 1.860708 14.802712 -5.731635 0.947407 0.000001 0.400292 2.270342 -0.000001 -0.000002 0.000000 0.000019 0.200910 2.296522 0.000003 -0.000001 0.000003 0.000018 -0.000044 2.305330 -0.000012 -0.000012 22.452473 -0.000005 -0.864462 6.051489 1.401218 -4.915554 -173.626154 0.000021 -0.550451 3.121708 -0.000002 0.000001 0.000000 -0.788277 -1.313751 4.256763 -122.010852 36.455718 -60.895330 -3.915090 -0.000008 -0.000031 0.000004 -0.000001 0.000001 -6.914883 -0.000004 -0.000002 0.000010 0.000048 -28.435491 -6.096174 -0.000006 -0.000007 -0.000021 0.000050 -0.000060 -1.749931 -0.000001 0.000007 -0.000004 -0.000003 0.000000 -0.700009 -1.166619 -0.466656 -0.000001 -0.000002 0.000005 0.788272 -1.313786 4.256742 -114.646501 -45.831334 76.436087 3.915184 -0.000018 0.000000 -0.000001 -0.000001 -0.000001 6.914896 -0.000020 -0.000020 0.000019 -0.000049 23.375342 6.096252 0.000051 -0.000014 0.000028 -0.000062 0.000011 1.749939 0.000007 0.000012 0.000000 -0.000003 -0.000001 0.699938 -1.166587 -0.466659 0.000010 -0.000003 -0.000028 -2.338578 -0.252531 -0.551507 22.921579 -3.030722 1.451821 0.000011 -0.000009 -10.744976 15.289698 -2.416624 0.106537 -0.000020 0.000036 -10.930840 0.000005 -0.000002 -0.000008 -0.000001 -4.087264 -1.487638 0.000006 0.000000 -0.000001 2.338570 -0.252538 -0.551447 -21.482774 -15.824493 -1.382476 -0.000006 -0.000012 -10.744940 36.535730 0.320642 -7.443249 -0.000001 0.000009 -10.930858 0.000022 0.000003 0.000005 -0.000017 -4.087219 -1.487653 -0.000001 0.000000 -0.000006 
0.000006 26.731003 39.966034 -0.384595 0.540936 51.229062 -0.000005 0.900093 1.860713 14.667160 -5.772588 0.978897 -0.000001 0.400290 2.270342 -0.000003 -0.000002 0.000002 0.000021 0.200908 2.296520 0.000001 0.000000 0.000004 0.000015 -0.000042 2.305334 -0.000010 -0.000012 22.416015 -0.000006 -0.864466 6.051492 1.481301 -4.962717 -174.388663 0.000019 -0.550451 3.121716 -0.000003 0.000001 0.000000 -0.788277 -1.313754 4.256763 -121.864153 36.513481 -60.953312 -3.915096 -0.000006 -0.000031 -0.000002 0.000000 -0.000000 -6.914884 -0.000002 0.000002 0.000011 0.000048 -28.263603 -6.096170 -0.000004 -0.000003 -0.000023 0.000050 -0.000060 -1.749930 0.000000 0.000007 0.000005 -0.000001 0.000000 -0.700000 -1.166620 -0.466659 0.000002 -0.000002 0.000002 0.788270 -1.313793 4.256753 -114.934325 -46.554453 76.015470 3.915193 -0.000015 0.000008 0.000002 0.000000 -0.000000 6.914901 -0.000021 -0.000017 0.000021 -0.000046 24.053490 6.096253 0.000055 -0.000019 0.000030 -0.000064 0.000013 1.749935 0.000008 0.000008 0.000004 0.000000 0.000000 0.699936 -1.166589 -0.466667 0.000017 -0.000003 -0.000025 -2.338576 -0.252532 -0.551509 22.734705 -3.209377 1.501787 0.000015 -0.000008 -10.744978 15.240068 -2.330037 0.098906 -0.000024 0.000037 -10.930840 0.000007 -0.000002 -0.000008 0.000001 -4.087265 -1.487637 0.000000 -0.000001 -0.000005 2.338573 -0.252537 -0.551446 -21.799684 -15.803705 -1.461140 -0.000003 -0.000013 -10.744942 36.583600 0.360276 -7.352180 -0.000004 0.000009 -10.930856 0.000020 0.000004 0.000003 -0.000020 -4.087222 -1.487652 -0.000000 -0.000002 -0.000002 
